General
Unique ID                                : 311807083528848964977506915789443166364 (0xEA93DC22AB965A58D6713AA23FEFF09C)
Complete name                            : TK from Ling tosite sigure - unravel [WEB-DL 1080p AAC x264-SEKAI].mkv
Format                                   : Matroska
Format version                           : Version 4
File size                                : 289 MiB
Duration                                 : 4 min 2 s
Overall bit rate                         : 9 970 kb/s
Frame rate                               : 29.970 FPS
Title                                    : TK from Ling tosite sigure - unravel [WEB-DL 1080p AAC x264-SEKAI]
Encoded date                             : 2025-09-27 17:00:01 UTC
Writing application                      : mkvmerge 95.0 ('Goodbye Stranger') 64-bit
Writing library                          : libebml v1.4.5 + libmatroska v1.7.1
Website                                  : https://sekai-archivist.blogspot.com/

Video
ID                                       : 1
Format                                   : AVC
Format/Info                              : Advanced Video Codec
Format profile                           : High@L4
Format settings                          : CABAC / 5 Ref Frames
Format settings, CABAC                   : Yes
Format settings, Reference frames        : 5 frames
Format settings, Slice count             : 8 slices per frame
Codec ID                                 : V_MPEG4/ISO/AVC
Duration                                 : 4 min 2 s
Bit rate                                 : 9 716 kb/s
Width                                    : 1 896 pixels
Height                                   : 754 pixels
Display aspect ratio                     : 2.515
Frame rate mode                          : Constant
Frame rate                               : 29.970 (30000/1001) FPS
Color space                              : YUV
Chroma subsampling                       : 4:2:0 (Type 2)
Bit depth                                : 8 bits
Scan type                                : Progressive
Bits/(Pixel*Frame)                       : 0.227
Stream size                              : 281 MiB (97%)
Default                                  : Yes
Forced                                   : No
Color range                              : Limited
Color primaries                          : BT.709
Transfer characteristics                 : BT.709
Matrix coefficients                      : BT.709

Audio
ID                                       : 2
Format                                   : AAC LC
Format/Info                              : Advanced Audio Codec Low Complexity
Codec ID                                 : A_AAC-2
Duration                                 : 4 min 2 s
Bit rate                                 : 253 kb/s
Channel(s)                               : 2 channels
Channel layout                           : L R
Sampling rate                            : 48.0 kHz
Frame rate                               : 46.875 FPS (1024 SPF)
Compression mode                         : Lossy
Stream size                              : 7.31 MiB (3%)
Default                                  : Yes
Forced                                   : No


